HIERARCHY
ROOT hip
{
  OFFSET 0 0 0
  CHANNELS 6 Xposition Yposition Zposition Zrotation Yrotation Xrotation
  JOINT abdomen
  {
    OFFSET 0 20.6881 -0.73152
    CHANNELS 3 Zrotation Xrotation Yrotation
    JOINT chest
    {
      OFFSET 0 11.7043 -0.48768
      CHANNELS 3 Zrotation Xrotation Yrotation
      JOINT neck
      {
        OFFSET 0 22.1894 -2.19456
        CHANNELS 3 Zrotation Xrotation Yrotation
        JOINT head
        {
          OFFSET -0.24384 7.07133 1.2192
          CHANNELS 3 Zrotation Xrotation Yrotation
          JOINT leftEye
          {
            OFFSET 4.14528 8.04674 8.04672
            CHANNELS 3 Zrotation Xrotation Yrotation
            End Site
            {
              OFFSET 1 0 0
            }
          }
          JOINT rightEye
          {
            OFFSET -3.6576 8.04674 8.04672
            CHANNELS 3 Zrotation Xrotation Yrotation
            End Site
            {
              OFFSET 1 0 0
            }
          }
        }
      }
      JOINT rCollar
      {
        OFFSET -2.68224 19.2634 -4.8768
        CHANNELS 3 Zrotation Xrotation Yrotation
        JOINT rShldr
        {
          OFFSET -8.77824 -1.95073 1.46304
          CHANNELS 3 Zrotation Xrotation Yrotation
          JOINT rForeArm
          {
            OFFSET -28.1742 -1.7115 0.48768
            CHANNELS 3 Zrotation Xrotation Yrotation
            JOINT rHand
            {
              OFFSET -22.5879 0.773209 7.07136
              CHANNELS 3 Zrotation Xrotation Yrotation
              JOINT rThumb1
              {
                OFFSET -1.2192 -0.487915 3.41376
                CHANNELS 3 Zrotation Xrotation Yrotation
                JOINT rThumb2
                {
                  OFFSET -3.37035 -0.52449 3.41376
                  CHANNELS 3 Zrotation Xrotation Yrotation
                  End Site
                  {
                    OFFSET -1.78271 -1.18214 1.43049
                  }
                }
              }
              JOINT rIndex1
              {
                OFFSET -7.75947 0.938293 5.60832
                CHANNELS 3 Zrotation Xrotation Yrotation
                JOINT rIndex2
                {
                  OFFSET -2.54057 -0.884171 1.56538
                  CHANNELS 3 Zrotation Xrotation Yrotation
                  End Site
                  {
                    OFFSET -1.62519 -0.234802 1.16502
                  }
                }
              }
              JOINT rMid1
              {
                OFFSET -8.24714 1.18213 3.41376
                CHANNELS 3 Zrotation Xrotation Yrotation
                JOINT rMid2
                {
                  OFFSET -3.10165 -0.590103 1.0647
                  CHANNELS 3 Zrotation Xrotation Yrotation
                  End Site
                  {
                    OFFSET -2.48547 -0.328903 0.83742
                  }
                }
              }
              JOINT rRing1
              {
                OFFSET -8.82822 0.546677 1.51678
                CHANNELS 3 Zrotation Xrotation Yrotation
                JOINT rRing2
                {
                  OFFSET -2.60934 -0.819778 -0.0198488
                  CHANNELS 3 Zrotation Xrotation Yrotation
                  End Site
                  {
                    OFFSET -2.33842 -0.294052 0.168128
                  }
                }
              }
              JOINT rPinky1
              {
                OFFSET -8.27202 -0.0477905 -0.4584
                CHANNELS 3 Zrotation Xrotation Yrotation
                JOINT rPinky2
                {
                  OFFSET -1.82734 -0.647385 -0.700984
                  CHANNELS 3 Zrotation Xrotation Yrotation
                  End Site
                  {
                    OFFSET -1.69225 -0.51767 -0.607171
                  }
                }
              }
            }
          }
        }
      }
      JOINT lCollar
      {
        OFFSET 2.68224 19.2634 -4.8768
        CHANNELS 3 Zrotation Xrotation Yrotation
        JOINT lShldr
        {
          OFFSET 8.77824 -1.95073 1.46304
          CHANNELS 3 Zrotation Xrotation Yrotation
          JOINT lForeArm
          {
            OFFSET 28.1742 -1.7115 0.48768
            CHANNELS 3 Zrotation Xrotation Yrotation
            JOINT lHand
            {
              OFFSET 22.5879 0.773209 7.07136
              CHANNELS 3 Zrotation Xrotation Yrotation
              JOINT lThumb1
              {
                OFFSET 1.2192 -0.487915 3.41376
                CHANNELS 3 Zrotation Xrotation Yrotation
                JOINT lThumb2
                {
                  OFFSET 3.37035 -0.52449 3.41376
                  CHANNELS 3 Zrotation Xrotation Yrotation
                  End Site
                  {
                    OFFSET 1.78271 -1.18214 1.43049
                  }
                }
              }
              JOINT lIndex1
              {
                OFFSET 7.75947 0.938293 5.60832
                CHANNELS 3 Zrotation Xrotation Yrotation
                JOINT lIndex2
                {
                  OFFSET 2.54057 -0.884171 1.56538
                  CHANNELS 3 Zrotation Xrotation Yrotation
                  End Site
                  {
                    OFFSET 1.62519 -0.234802 1.16502
                  }
                }
              }
              JOINT lMid1
              {
                OFFSET 8.24714 1.18213 3.41376
                CHANNELS 3 Zrotation Xrotation Yrotation
                JOINT lMid2
                {
                  OFFSET 3.10165 -0.590103 1.0647
                  CHANNELS 3 Zrotation Xrotation Yrotation
                  End Site
                  {
                    OFFSET 2.48547 -0.328903 0.83742
                  }
                }
              }
              JOINT lRing1
              {
                OFFSET 8.82822 0.546677 1.51678
                CHANNELS 3 Zrotation Xrotation Yrotation
                JOINT lRing2
                {
                  OFFSET 2.60934 -0.819778 -0.0198488
                  CHANNELS 3 Zrotation Xrotation Yrotation
                  End Site
                  {
                    OFFSET 2.33842 -0.294052 0.168128
                  }
                }
              }
              JOINT lPinky1
              {
                OFFSET 8.27202 -0.0477905 -0.4584
                CHANNELS 3 Zrotation Xrotation Yrotation
                JOINT lPinky2
                {
                  OFFSET 1.82734 -0.647385 -0.700984
                  CHANNELS 3 Zrotation Xrotation Yrotation
                  End Site
                  {
                    OFFSET 1.69225 -0.51767 -0.607171
                  }
                }
              }
            }
          }
        }
      }
    }
  }
  JOINT rButtock
  {
    OFFSET -8.77824 4.35084 1.2192
    CHANNELS 3 Zrotation Xrotation Yrotation
    JOINT rThigh
    {
      OFFSET 0 -1.70687 -2.19456
      CHANNELS 3 Zrotation Xrotation Yrotation
      JOINT rShin
      {
        OFFSET 0 -36.8199 0.73152
        CHANNELS 3 Zrotation Xrotation Yrotation
        JOINT rFoot
        {
          OFFSET 0.73152 -45.1104 -5.12064
          CHANNELS 3 Zrotation Xrotation Yrotation
          End Site
          {
            OFFSET -1.1221 -3.69964 12.103
          }
        }
      }
    }
  }
  JOINT lButtock
  {
    OFFSET 8.77824 4.35084 1.2192
    CHANNELS 3 Zrotation Xrotation Yrotation
    JOINT lThigh
    {
      OFFSET 0 -1.70687 -2.19456
      CHANNELS 3 Zrotation Xrotation Yrotation
      JOINT lShin
      {
        OFFSET 0 -36.8199 0.73152
        CHANNELS 3 Zrotation Xrotation Yrotation
        JOINT lFoot
        {
          OFFSET -0.73152 -45.1104 -5.12064
          CHANNELS 3 Zrotation Xrotation Yrotation
          End Site
          {
            OFFSET 1.1221 -3.69964 12.103
          }
        }
      }
    }
  }
}
MOTION
Frames:	6
Frame Time:	0.00833333
125.597 85.3326 -1.50592 0.0 0.0 0.0 1.16875 -0.00493882 0.0322836 0.322754 -0.00472403 0.0559151 7.30076e-15 0.0 -2.11209e-16 2.18011e-14 3.18055e-15 -6.6158e-16 -0.0 0.0 0.0 -0.0 0.0 0.0 3.8252e-15 -3.49426e-17 9.93923e-17 7.83305e-14 -8.57259e-16 -1.19271e-15 1.33708e-12 -4.2361e-13 -4.45278e-14 1.53169e-11 2.67738e-13 -4.42097e-13 3.61346e-11 -3.35939e-13 -1.02732e-12 6.23949e-11 -5.78861e-13 -1.78191e-12 3.61387e-11 -3.34753e-13 -1.04004e-12 7.73091 5.47488 0.417314 3.61331e-11 -3.35946e-13 -1.02732e-12 2.90554 0.965183 0.102902 3.61437e-11 -3.35747e-13 -1.02891e-12 10.2786 0.731801 0.0259123 3.61335e-11 -3.34753e-13 -1.02414e-12 2.22167 -0.733487 -0.20892 3.62946e-15 -3.41661e-17 -2.98177e-16 7.63665e-14 -1.06226e-15 -2.5842e-15 1.33668e-12 3.7133e-13 -5.08889e-14 1.5324e-11 -5.43999e-13 -4.13472e-13 3.61548e-11 -3.70651e-13 -1.0305e-12 6.24478e-11 -6.39292e-13 -1.76918e-12 3.61502e-11 -3.70137e-13 -1.02096e-12 -7.73091 5.47488 -0.417314 3.61554e-11 -3.70535e-13 -1.02732e-12 -2.90554 0.965183 -0.102902 3.61507e-11 -3.70733e-13 -1.03129e-12 -10.2786 0.731801 -0.0259123 3.61621e-11 -3.67752e-13 -1.03368e-12 -2.22167 -0.733487 0.20892 -2.03217e-16 0.0 -3.88251e-19 1.35584 -5.84651 -0.122718 0.00113196 5.034 0.0414039 -0.480845 0.811089 0.071087 2.03217e-16 0.0 3.88251e-19 0.426409 -1.91991 0.00997246 0.00898966 -2.0786 0.074085 0.459299 3.99698 -0.13249
120.799 83.466 -7.51819 177.107 -85.9526 -171.913 0.993975 -1.07692 2.50527 0.0826811 -1.45852 0.740071 -2.03273 2.88119 -1.01218 4.15122 -6.5784 -0.991102 -0.0 0.0 0.0 -0.0 0.0 0.0 1.24351e-14 1.63826e-13 1.4672e-15 25.159 -3.56084 -1.67662 -4.18632 -1.89551 6.54581 0.00890853 2.09723 0.294037 -9.89689e-11 1.34945e-11 -9.22753e-11 -1.71535e-10 2.24941e-11 -1.58405e-10 -9.89636e-11 1.34946e-11 -9.22902e-11 7.73091 5.47488 0.417314 -9.89701e-11 1.34933e-11 -9.22754e-11 2.90554 0.965183 0.102902 -9.89594e-11 1.34941e-11 -9.22798e-11 10.2786 0.731801 0.0259123 -9.89699e-11 1.34947e-11 -9.22751e-11 2.22167 -0.733487 -0.20892 1.22794e-14 1.63826e-13 1.09564e-15 -24.4035 -1.59821 3.26234 6.13776 -3.31837 -8.94177 -0.0422685 4.56314 -0.633982 -5.05872e-11 7.67524e-11 4.27765e-11 -8.69272e-11 1.34606e-10 7.51774e-11 -5.05913e-11 7.67457e-11 4.27852e-11 -7.73091 5.47488 -0.417314 -5.05868e-11 7.67522e-11 4.27787e-11 -2.90554 0.965183 -0.102902 -5.0592e-11 7.6745e-11 4.27756e-11 -10.2786 0.731801 -0.0259123 -5.05806e-11 7.67543e-11 4.27714e-11 -2.22167 -0.733487 0.20892 -2.03217e-16 0.0 -3.88251e-19 1.55117 -8.67089 -1.27891 0.0465074 11.3446 0.208773 -0.806829 -5.84985 -2.15661 2.03217e-16 0.0 3.88251e-19 0.86484 -9.90742 -1.23203 -0.0290843 7.86178 -0.112181 0.746237 -0.369937 2.88917
120.234 83.7069 -7.25723 173.862 -85.837 -168.517 0.946543 -2.18158 5.1152 -0.140348 -2.99255 1.46201 -4.08218 5.91 -2.08196 8.28953 -13.5355 -2.06056 -0.0 0.0 0.0 -0.0 0.0 0.0 2.10561e-14 3.43547e-13 4.00365e-15 51.5182 -7.26359 -3.43748 -8.14385 -3.81658 13.4879 -0.00519142 4.32779 0.608111 -2.80378e-10 7.68165e-11 -3.29256e-10 -4.86349e-10 1.31105e-10 -5.66727e-10 -2.80371e-10 7.68154e-11 -3.29273e-10 7.73091 5.47488 0.417314 -2.80378e-10 7.68139e-11 -3.29256e-10 2.90554 0.965183 0.102902 -2.80368e-10 7.68154e-11 -3.29264e-10 10.2786 0.731801 0.0259123 -2.80379e-10 7.68154e-11 -3.29259e-10 2.22167 -0.733487 -0.20892 2.09448e-14 3.43546e-13 3.65888e-15 -50.0145 -3.30016 6.70772 11.5182 -6.56131 -18.4958 0.0242059 9.38634 -1.31786 -1.08533e-10 2.35653e-10 1.92106e-10 -1.85183e-10 4.10901e-10 3.34268e-10 -1.08536e-10 2.35638e-10 1.92114e-10 -7.73091 5.47488 -0.417314 -1.08532e-10 2.35652e-10 1.92107e-10 -2.90554 0.965183 -0.102902 -1.08538e-10 2.35637e-10 1.92105e-10 -10.2786 0.731801 -0.0259123 -1.08527e-10 2.35653e-10 1.92099e-10 -2.22167 -0.733487 0.20892 -2.03217e-16 0.0 -3.88251e-19 1.65403 -11.6858 -2.55453 0.0520445 18.0355 0.396819 -1.71348 -12.847 -4.55699 2.03217e-16 0.0 3.88251e-19 0.965819 -18.3568 -2.65163 0.0038819 18.3671 -0.323219 1.5539 -4.94477 6.13184
119.676 83.8698 -6.97903 170.465 -85.6739 -165.001 0.921539 -3.19673 7.46159 -0.293071 -4.36351 2.11379 -5.78997 8.63272 -3.06749 11.7351 -19.7108 -3.13775 -0.0 0.0 0.0 -0.0 0.0 0.0 2.9655e-14 4.91548e-13 4.20282e-15 74.8433 -10.6456 -5.10829 -11.2831 -5.39025 19.7174 -0.0381815 6.29102 0.886861 -3.69176e-10 4.11555e-11 -2.74771e-10 -6.39395e-10 6.864e-11 -4.71652e-10 -3.69168e-10 4.11534e-11 -2.74791e-10 7.73091 5.47488 0.417314 -3.69176e-10 4.11518e-11 -2.74772e-10 2.90554 0.965183 0.102902 -3.69166e-10 4.11539e-11 -2.74782e-10 10.2786 0.731801 0.0259123 -3.69177e-10 4.11535e-11 -2.74777e-10 2.22167 -0.733487 -0.20892 2.95793e-14 4.91547e-13 3.88329e-15 -72.6659 -4.73241 9.81701 15.4006 -8.98695 -27.14 0.183613 13.6826 -1.95132 -2.24071e-10 2.30999e-10 1.30391e-10 -3.85677e-10 4.05098e-10 2.29071e-10 -2.24074e-10 2.30977e-10 1.30398e-10 -7.73091 5.47488 -0.417314 -2.24071e-10 2.30998e-10 1.30391e-10 -2.90554 0.965183 -0.102902 -2.24077e-10 2.30976e-10 1.3039e-10 -10.2786 0.731801 -0.0259123 -2.24066e-10 2.30998e-10 1.30382e-10 -2.22167 -0.733487 0.20892 -2.03217e-16 0.0 -3.88251e-19 1.58975 -14.298 -3.66229 0.0168979 23.9648 0.581744 -3.0836 -19.0529 -6.96137 2.03217e-16 0.0 3.88251e-19 0.603402 -25.8324 -4.06797 0.107328 27.7415 -0.54398 2.70794 -8.99387 9.04378
119.114 84.0414 -6.68974 166.6 -85.6252 -161.043 0.767764 -4.00957 9.14031 -0.342845 -5.32917 2.58517 -6.85525 10.6 -3.81428 13.9434 -23.9521 -4.08578 -0.0 0.0 0.0 -0.0 0.0 0.0 3.81991e-14 5.6025e-13 -1.44119e-15 90.9962 -13.2561 -6.48851 -13.2663 -6.37735 24.0891 -0.0711157 7.5866 1.07256 -2.26448e-10 -2.41963e-10 5.08377e-10 -3.88025e-10 -4.21513e-10 8.81914e-10 -2.26439e-10 -2.41965e-10 5.08358e-10 7.73091 5.47488 0.417314 -2.26448e-10 -2.41967e-10 5.08377e-10 2.90554 0.965183 0.102902 -2.26437e-10 -2.41965e-10 5.08366e-10 10.2786 0.731801 0.0259123 -2.26448e-10 -2.41965e-10 5.0837e-10 2.22167 -0.733487 -0.20892 3.81367e-14 5.60249e-13 -1.73937e-15 -88.3151 -5.55133 12.0552 17.6351 -10.2996 -33.2066 0.353335 16.668 -2.41165 -4.83594e-10 -1.82542e-10 -4.58938e-10 -8.41767e-10 -3.0595e-10 -7.86849e-10 -4.83597e-10 -1.82566e-10 -4.58932e-10 -7.73091 5.47488 -0.417314 -4.83594e-10 -1.82543e-10 -4.58938e-10 -2.90554 0.965183 -0.102902 -4.836e-10 -1.82567e-10 -4.58939e-10 -10.2786 0.731801 -0.0259123 -4.83589e-10 -1.82542e-10 -4.58948e-10 -2.22167 -0.733487 0.20892 -2.03217e-16 0.0 -3.88251e-19 1.38077 -15.9248 -4.28533 -0.0312763 27.9909 0.724761 -4.50353 -23.382 -9.059 2.03217e-16 0.0 3.88251e-19 -0.0606517 -30.9224 -5.14068 0.231981 34.2898 -0.730859 3.7351 -11.8457 10.9987
118.506 84.212 -6.37228 160.36 -85.6913 -154.888 0.32455 -4.56075 9.88867 -0.279321 -5.74998 2.80363 -7.0965 11.5415 -4.21752 14.6728 -25.5083 -4.76286 -0.0 0.0 0.0 -0.0 0.0 0.0 5.07674e-14 5.30696e-13 -1.88834e-14 97.3072 -14.9075 -7.44655 -13.9926 -6.72917 25.7944 -0.0846999 8.00315 1.13273 3.26955e-10 -1.00335e-09 2.73211e-09 5.81707e-10 -1.73847e-09 4.72378e-09 3.26963e-10 -1.00335e-09 2.7321e-09 7.73091 5.47488 0.417314 3.26954e-10 -1.00336e-09 2.73211e-09 2.90554 0.965183 0.102902 3.26964e-10 -1.00335e-09 2.73211e-09 10.2786 0.731801 0.0259123 3.26954e-10 -1.00335e-09 2.73211e-09 2.22167 -0.733487 -0.20892 5.06806e-14 5.30696e-13 -1.91586e-14 -94.308 -5.53681 13.0767 18.3823 -10.6794 -35.5031 0.433087 17.827 -2.59597 -1.06375e-09 -1.41794e-09 -2.10699e-09 -1.86557e-09 -2.43386e-09 -3.62974e-09 -1.06376e-09 -1.41796e-09 -2.10698e-09 -7.73091 5.47488 -0.417314 -1.06375e-09 -1.41794e-09 -2.10699e-09 -2.90554 0.965183 -0.102902 -1.06376e-09 -1.41796e-09 -2.10699e-09 -10.2786 0.731801 -0.0259123 -1.06375e-09 -1.41794e-09 -2.107e-09 -2.22167 -0.733487 0.20892 -2.03217e-16 0.0 -3.88251e-19 1.08544 -16.146 -4.18018 -0.0504906 29.2946 0.784012 -5.44244 -25.1618 -10.5041 2.03217e-16 0.0 3.88251e-19 -0.694905 -32.7225 -5.47713 0.296286 36.9018 -0.817148 4.12861 -13.105 11.4919
